<?xml version="1.0" standalone="no"?>
<!DOCTYPE svg PUBLIC "-//W3C//DTD SVG 20010904//EN"
 "http://www.w3.org/TR/2001/REC-SVG-20010904/DTD/svg10.dtd">
<svg version="1.0" xmlns="http://www.w3.org/2000/svg"
 width="700.000000pt" height="700.000000pt" viewBox="0 0 700.000000 700.000000"
 preserveAspectRatio="xMidYMid meet">
<metadata>
Created by potrace 1.14, written by Peter Selinger 2001-2017
</metadata>
<g transform="translate(0.000000,700.000000) scale(0.100000,-0.100000)"
fill="#000000" stroke="none">
<path d="M664 5889 c-49 -14 -125 -69 -161 -117 -68 -89 -63 77 -61 -2297 l3
-2150 27 -51 c35 -67 115 -138 181 -161 50 -17 170 -18 2847 -18 2677 0 2797
1 2847 18 66 23 146 94 181 161 l27 51 0 2170 0 2170 -28 57 c-30 62 -83 115
-149 150 l-43 23 -2820 2 c-1675 1 -2833 -2 -2851 -8z m951 -884 l25 -24 0
-275 0 -275 -24 -28 -24 -28 -250 -3 c-163 -2 -265 1 -292 8 -68 18 -71 36
-68 340 3 258 3 258 27 284 l24 26 279 0 279 0 24 -25z m1089 4 l26 -20 0
-285 c0 -267 -1 -285 -19 -303 -28 -28 -80 -33 -343 -29 -234 3 -237 3 -262
27 l-26 24 0 279 0 279 25 24 24 25 274 0 c262 0 275 -1 301 -21z m1081 15
c40 -16 45 -52 45 -318 0 -144 -4 -266 -10 -281 -18 -49 -56 -55 -320 -55
-264 0 -302 6 -320 55 -6 15 -10 137 -10 281 0 261 5 303 42 317 19 8 553 8
573 1z m1110 -19 l25 -24 0 -279 0 -279 -26 -24 c-25 -24 -28 -24 -262 -27
-263 -4 -315 1 -343 29 -18 18 -19 36 -19 303 l0 285 26 20 c26 20 39 21 301
21 l274 0 24 -25z m1096 -1 c24 -26 24 -26 27 -284 3 -304 0 -322 -68 -340
-27 -7 -129 -10 -292 -8 l-250 3 -24 28 -24 28 0 275 0 275 25 24 24 25 279 0
279 0 24 -26z m-4398 -1076 c46 -24 46 -29 46 -318 0 -201 -3 -279 -12 -291
-28 -36 -51 -39 -321 -39 l-265 0 -28 24 -28 24 -3 269 c-3 288 0 306 48 330
34 17 531 18 563 1z m1118 -17 c18 -22 19 -42 19 -303 l0 -279 -25 -24 -24
-25 -266 0 c-278 0 -313 5 -329 45 -3 9 -6 139 -6 289 0 285 1 290 45 315 14
7 106 10 293 8 l274 -2 19 -24z m1090 0 l29 -29 0 -272 0 -272 -29 -29 -29
-29 -272 0 -272 0 -29 29 -29 29 0 272 0 272 29 29 29 29 272 0 272 0 29 -29z
m1078 14 c16 -8 31 -22 35 -30 8 -22 8 -548 0 -570 -16 -40 -51 -45 -329 -45
l-266 0 -24 25 -25 24 0 276 c0 176 4 284 11 296 6 11 20 24 32 29 12 5 138 9
280 9 208 1 263 -2 286 -14z m1113 -13 c23 -22 23 -25 23 -303 l0 -281 -28
-24 -28 -24 -265 0 c-270 0 -293 3 -321 39 -9 12 -12 90 -12 291 0 201 3 279
12 291 29 37 46 39 324 36 269 -2 273 -2 295 -25z m-1093 -1098 c20 -26 21
-39 21 -301 l0 -274 -25 -24 -24 -25 -1371 0 -1371 0 -24 25 -25 24 0 277 c0
271 0 278 22 301 l21 23 1378 0 1378 0 20 -26z"/>
</g>
</svg>
